<svg xmlns="http://www.w3.org/2000/svg" viewBox="0 0 16 16">
  <!-- Задняя стенка папки с ушком -->
  <path d="M1.5 2.5h4.5l1.5 1.5h7A1.5 1.5 0 0 1 16 5.5v7A1.5 1.5 0 0 1 14.5 14h-13A1.5 1.5 0 0 1 0 12.5v-9A1.5 1.5 0 0 1 1.5 2.5z" fill="#FFE082" stroke="#FFB300" stroke-width="1"/>
  <!-- Лист бумаги внутри -->
  <rect x="2" y="4" width="12" height="6" fill="#FFF" stroke="#E0E0E0" stroke-width="0.5"/>
  <!-- Передний карман папки (приоткрытый) -->
  <path d="M0 7.5h16v5a1.5 1.5 0 0 1-1.5 1.5h-13A1.5 1.5 0 0 1 0 12.5v-5z" fill="#FFCA28" stroke="#FFB300" stroke-width="1"/>
</svg>
