<svg width="16" height="16" viewBox="0 0 16 16" fill="white" xmlns="http://www.w3.org/2000/svg">
<g clip-path="url(#clip0)">
<circle cx="8" cy="8" r="7" fill="white"/>
<path fill-rule="evenodd" clip-rule="evenodd" d="M5.59026 11.6699C5.48977 11.3523 5.39807 11.0222 5.31847 10.6815C5.12261 9.84327 5 8.94059 5 8.00001C5 7.18313 5.09248 6.39485 5.24511 5.65251C6.0701 5.86023 7.00687 6.00001 8 6.00001C8.99313 6.00001 9.9299 5.86023 10.7549 5.65251C11.0581 5.57617 11.3462 5.49066 11.6164 5.39953C12.7648 5.01229 13.5909 4.52372 13.8836 4.20747C14.1039 4.5492 14.2951 4.91128 14.4542 5.29024C14.9709 6.52089 15.1231 7.86877 14.9007 9.17493L15.7607 9.94214C16.1799 8.26686 16.0462 6.49878 15.3763 4.90313C14.6802 3.2452 13.4459 1.8701 11.8724 0.999712C10.299 0.129317 8.47822 -0.185621 6.70385 0.105712C4.92947 0.397042 3.30499 1.27765 2.09247 2.60546C0.879961 3.93328 0.150134 5.63086 0.0207402 7.42433C-0.108654 9.2178 0.369932 11.0026 1.37928 12.4907C2.38864 13.9788 3.86989 15.0835 5.58407 15.6265C6.04827 15.7735 6.52222 15.8771 7 15.9373V14.7627C6.53034 14.0038 5.99058 12.9354 5.59026 11.6699ZM4.33009 10.4097C4.12455 9.64929 4 8.83976 4 8.00001C4 7.08967 4.14636 6.21484 4.38361 5.39953C3.23518 5.01229 2.40907 4.52372 2.1164 4.20747C1.48366 5.18909 1.10308 6.31908 1.01815 7.49629C0.984532 7.96225 0.997815 8.42753 1.05623 8.88555C1.82167 9.37984 2.96047 9.97645 4.33009 10.4097ZM10.5634 4.85196C9.7861 4.94155 8.91708 5.00001 8 5.00001C7.08292 5.00001 6.2139 4.94155 5.43657 4.85196C5.87343 3.24975 6.55863 1.91696 7.11445 1.05625C7.70563 0.980847 8.30069 0.98166 8.88554 1.05625L9.30905 1.1235C10.0326 1.26124 10.7349 1.51324 11.3884 1.87475C12.3793 2.4229 13.2165 3.19983 13.835 4.13315C13.485 4.30484 12.6008 4.55232 11.4005 4.73894C10.8524 3.2279 10.0211 1.96471 9.30905 1.1235L8.88554 1.05625C9.44137 1.91696 10.1266 3.24975 10.5634 4.85196ZM2.20687 11.9293C3.09006 13.2314 4.38615 14.198 5.88606 14.6732C6.1512 14.7572 6.41998 14.825 6.69095 14.8765C5.99496 14.0543 5.18507 12.8289 4.63704 11.363C3.17111 10.8149 1.94572 10.005 1.12349 9.30906C1.30093 10.2411 1.66719 11.1336 2.20687 11.9293ZM6.69093 1.12351C5.20668 1.40603 3.85188 2.16172 2.83091 3.27978C2.586 3.54798 2.3636 3.83342 2.16497 4.13315C2.51496 4.30484 3.39918 4.55232 4.59952 4.73894C5.14762 3.22791 5.97888 1.96471 6.69093 1.12351Z" fill="#A0A0A0"/>
<path d="M10.2775 7.89619C10.6057 7.24643 11.247 7 12 7C12.753 7 13.3945 7.24636 13.7226 7.89615C13.9594 8.36523 13.9589 8.9284 13.9585 9.30405V9.34694C13.9585 10.0133 13.6252 10.7386 13.1226 11.3557L13.0054 11.4996L13.1404 11.6271C13.1842 11.6685 13.2722 11.7331 13.4537 11.8365C13.6311 11.9374 13.8707 12.0606 14.1999 12.2251C14.4763 12.3637 14.7285 12.4914 14.9337 12.6072C15.1286 12.7172 15.3265 12.8408 15.4648 12.979C15.7021 13.2165 15.8285 13.5317 15.8979 13.7861C15.9696 14.049 15.9972 14.3084 15.9999 14.492L16.0076 14.9994L7.99175 15L8.00007 14.4918C8.00307 14.3082 8.03085 14.0486 8.10262 13.7857C8.17204 13.5315 8.29802 13.2165 8.53511 12.9792C8.67334 12.8411 8.87142 12.7171 9.06635 12.6071C9.27155 12.4913 9.52315 12.3639 9.79973 12.2254C10.1288 12.0611 10.3687 11.9378 10.546 11.8368C10.7273 11.7335 10.8152 11.6688 10.859 11.6273L10.9944 11.4993L10.8775 11.3557C10.3753 10.739 10.0416 10.0133 10.0416 9.34685V9.30392C10.0412 8.92832 10.0406 8.36513 10.2775 7.89619Z" fill="#808080"/>
</g>
<defs>
<clipPath id="clip0">
<rect width="16" height="16" fill="white"/>
</clipPath>
</defs>
</svg>
