<svg width="16" height="16" viewBox="0 0 16 16" fill="black" xmlns="http://www.w3.org/2000/svg">
<path fill-rule="evenodd" clip-rule="evenodd" d="M2.16673 15C1.8539 15 1.5542 14.8741 1.33515 14.6512C1.1161 14.429 0.995046 14.1278 1.00016 13.8149C1.00497 13.5165 1.07395 11.9795 1.98954 11.0635C2.40299 10.6505 3.09485 10.2899 4.18428 9.74475C4.41956 9.62724 4.72157 9.47635 5.0075 9.3257C5.32479 9.15854 5.62227 8.99166 5.7868 8.87102C5.8205 8.84631 5.84862 8.82353 5.87019 8.8031C4.9409 7.6621 4.40275 6.37353 4.40275 5.24507C4.40275 4.47944 4.40275 3.52642 4.83181 2.67679C5.21815 1.91204 6.08108 1 8.00004 1C9.91896 1 10.7819 1.91204 11.1683 2.67679C11.5973 3.52642 11.5973 4.47944 11.5973 5.24507C11.5973 6.37353 11.0592 7.6621 10.1299 8.8031C10.1515 8.82353 10.1796 8.84631 10.2133 8.87102C10.3778 8.99166 10.6753 9.15854 10.9926 9.3257C11.2785 9.47635 11.5805 9.62724 11.8158 9.74475C12.9052 10.2899 13.597 10.6505 14.0105 11.0635C14.9261 11.9795 14.995 13.5165 14.9998 13.8149C15.005 14.1278 14.8839 14.429 14.6649 14.6512C14.4458 14.8741 14.1461 15 13.8333 15H8H2.16673ZM6.38156 2.39304C6.70296 2.18664 7.20519 2 8.00004 2C8.79487 2 9.29713 2.18664 9.61853 2.39304C9.9435 2.60174 10.146 2.871 10.2757 3.1277C10.5811 3.73259 10.5973 4.4457 10.5973 5.24507C10.5973 6.07695 10.187 7.14952 9.35453 8.17159L8.76865 8.89096L9.44214 9.52904C9.58132 9.6609 9.761 9.77588 9.88821 9.8536C10.0359 9.94385 10.2061 10.039 10.3761 10.1304C10.712 10.3111 11.0858 10.4979 11.3576 10.6337L11.3675 10.6387C12.514 11.2123 13.0311 11.4987 13.3037 11.771C13.58 12.0477 13.7652 12.4622 13.8759 12.9104C13.9836 13.347 13.9983 13.7243 14 13.8312C14.0007 13.8753 13.9837 13.9178 13.9528 13.949L13.9516 13.9503C13.9203 13.9821 13.8776 14 13.8333 14H8.00011H2.16673C2.12247 14 2.0797 13.9821 2.04847 13.9503L2.04718 13.949C2.01637 13.9178 1.9993 13.8753 2.00002 13.8312C2.00175 13.7243 2.01643 13.347 2.12417 12.9104C2.23478 12.4622 2.41999 12.0477 2.69631 11.771C2.96897 11.4987 3.48609 11.2123 4.63253 10.6387L4.64246 10.6337C4.91421 10.4979 5.28805 10.3111 5.62393 10.1304C5.79395 10.039 5.96417 9.94385 6.11188 9.8536C6.23909 9.77588 6.41877 9.6609 6.55795 9.52904L7.23145 8.89096L6.64556 8.17159C5.81313 7.14952 5.40275 6.07695 5.40275 5.24507C5.40275 4.4457 5.41896 3.73259 5.72438 3.1277C5.85406 2.871 6.05658 2.60174 6.38156 2.39304Z" fill="#4D4D4D"/>
</svg>
