<svg width="16" height="16" viewBox="0 0 16 16" fill="none" xmlns="http://www.w3.org/2000/svg">
<circle cx="8" cy="8" r="8" fill="white"/>
<path d="M8 1C11.866 1 15 4.5 15 8H16C16 3.58172 12.4183 0 8 0C3.58172 0 0 3.58172 0 8C0 12.4183 3.58172 16 8 16C9.48225 16 10.8704 15.5969 12.0606 14.8943C12.5179 14.6244 12.2987 14 11.7678 14C11.663 14 11.5604 14.0291 11.4694 14.0811C10.4468 14.6658 9.26241 15 8 15C4.13401 15 1 11.866 1 8C1 4.13401 4.13401 1 8 1Z" fill="#808080"/>
<path d="M15 8C15 8.90912 14.7224 9.69369 14.3213 10.2284C13.9205 10.7629 13.4431 11 13 11C12.6748 11 12.3311 10.8723 12.0128 10.593L11.9999 10.5855L11.5606 11.5103C11.9879 11.8225 12.4784 12 13 12C14.6569 12 16 10.2091 16 8H15Z" fill="#808080"/>
<path d="M6.28123 3.89619C6.60878 3.24643 7.24881 3 8.00032 3C8.75184 3 9.39207 3.24636 9.71952 3.89615C9.95585 4.36523 9.95535 4.9284 9.95495 5.30405V5.34694C9.95495 6.0133 9.62231 6.7386 9.1207 7.3557L9.00374 7.4996L9.13847 7.6271C9.18218 7.6685 9.27001 7.7331 9.45115 7.8365C9.6282 7.9374 9.86732 8.0606 10.1959 8.2251C10.4717 8.3637 10.7234 8.4914 10.9282 8.6072C11.1227 8.7172 11.3202 8.8408 11.4583 8.979C11.6951 9.2165 11.8213 9.5317 11.8905 9.7861C11.9621 10.049 11.9896 10.3084 11.9923 10.492L12 10.9994L11.5551 11.5H8H4L4.0083 10.4918C4.0113 10.3082 4.03902 10.0486 4.11065 9.7857C4.17993 9.5315 4.30567 9.2165 4.54229 8.9792C4.68024 8.8411 4.87793 8.7171 5.07248 8.6071C5.27727 8.4913 5.52837 8.3639 5.80441 8.2254C6.13282 8.0611 6.37225 7.9378 6.5492 7.8368C6.73014 7.7335 6.81787 7.6688 6.86158 7.6273L6.99671 7.4993L6.88004 7.3557C6.37884 6.739 6.0458 6.0133 6.0458 5.34685V5.30392C6.0454 4.92832 6.0448 4.36513 6.28123 3.89619Z" fill="#808080"/>
</svg>
