<svg width="16" height="16" viewBox="0 0 16 16" fill="none" xmlns="http://www.w3.org/2000/svg">
<path d="M8 11H12V8L16 12L12 16V13H8V11Z" fill="#009646"/>
<path d="M4 8C4 8.83975 4.12455 9.64928 4.33009 10.4097C4.41856 10.7371 4.52203 11.0553 4.63704 11.363C5.66066 14.1011 7.59787 16 8 16C7.79364 16 6.40393 14.242 5.59026 11.6699C5.48977 11.3523 5.39807 11.0222 5.31847 10.6815C5.12261 9.84326 5 8.94058 5 8C5 3.58172 7.70545 0 8 0C7.44772 0 4 3.58172 4 8Z" fill="#4D4D4D"/>
<path d="M8 6C8.99313 6 9.9299 5.86022 10.7549 5.6525C11.0581 5.57616 11.3462 5.49065 11.6164 5.39952C13.0644 4.91126 14 4.26191 14 4C14 4.14651 12.9707 4.4948 11.4005 4.73893C11.136 4.78005 10.8562 4.81821 10.5634 4.85195C9.7861 4.94154 8.91708 5 8 5C4.68629 5 2 4.23669 2 4C2 4.4438 4.68629 6 8 6Z" fill="#4D4D4D"/>
<path d="M0 8C0 8.40213 1.89892 10.3393 4.63704 11.363C4.52203 11.0553 4.41856 10.7371 4.33009 10.4097C1.75803 9.59607 0 8.20636 0 8Z" fill="#4D4D4D"/>
<path d="M11.4005 4.73893C10.3874 1.94614 8.4071 0 8 0C8.22004 0 9.78548 1.99879 10.5634 4.85195C10.8562 4.81821 11.136 4.78005 11.4005 4.73893Z" fill="#4D4D4D"/>
<path d="M15.3763 4.90312C14.6802 3.24519 13.4459 1.87009 11.8724 0.999699C10.299 0.129304 8.47822 -0.185633 6.70385 0.105699C4.92947 0.39703 3.30499 1.27764 2.09247 2.60545C0.879961 3.93327 0.150134 5.63085 0.0207399 7.42432C-0.108654 9.21779 0.369932 11.0026 1.37928 12.4907C2.38864 13.9788 3.86989 15.0835 5.58407 15.6265C7.02113 16.0817 8.55164 16.12 10 15.746V14.7082C8.65985 15.1078 7.2265 15.0978 5.88606 14.6732C4.38615 14.198 3.09006 13.2314 2.20687 11.9293C1.32369 10.6272 0.904928 9.06557 1.01815 7.49628C1.13137 5.92699 1.76997 4.44161 2.83091 3.27977C3.89186 2.11793 5.31329 1.3474 6.86587 1.09249C8.41844 0.837572 10.0116 1.11314 11.3884 1.87474C12.7651 2.63633 13.8452 3.83954 14.4542 5.29023C14.9709 6.52088 15.1231 7.86876 14.9007 9.17492L15.7607 9.94213C16.1799 8.26685 16.0462 6.49877 15.3763 4.90312Z" fill="#4D4D4D"/>
</svg>
