<svg width="16" height="16" viewBox="0 0 16 16" fill="none" xmlns="http://www.w3.org/2000/svg">
<path fill-rule="evenodd" clip-rule="evenodd" d="M3.28441 4.43725C3.61556 3.78175 4.35521 3 6.00004 3C7.64487 3 8.38463 3.78175 8.71578 4.43725C9.08355 5.1655 9.08355 5.98238 9.08355 6.63863C9.08355 7.60588 8.62228 8.71037 7.82574 9.68837C7.84423 9.70589 7.86833 9.72541 7.89722 9.74659C8.06036 9.86622 8.37601 10.0389 8.69401 10.2036C8.89864 10.3096 9.10423 10.4123 9.27081 10.4955C10.2046 10.9627 10.7976 11.2719 11.152 11.6259C11.9368 12.411 11.9959 13.7284 12.0001 13.9842C12.0044 14.2524 11.9007 14.5106 11.7129 14.701C11.5252 14.8921 11.2683 15 11.0001 15H1.00006C0.731918 15 0.47503 14.8921 0.287271 14.701C0.0995127 14.5106 -0.00424223 14.2524 0.000132974 13.9842C0.00425817 13.7284 0.063386 12.411 0.848173 11.6259C1.20256 11.2719 1.79559 10.9627 2.72938 10.4955C2.89596 10.4123 3.10155 10.3096 3.30617 10.2036C3.62418 10.0389 3.93983 9.86622 4.10297 9.74659C4.13186 9.72541 4.15596 9.70589 4.17445 9.68837C3.37791 8.71037 2.91664 7.60588 2.91664 6.63863C2.91664 5.98238 2.91664 5.1655 3.28441 4.43725ZM6.00004 4C5.34226 4 4.93938 4.15406 4.68996 4.31424C4.43702 4.47668 4.27913 4.686 4.17704 4.88803C3.93291 5.37155 3.91664 5.94864 3.91664 6.63863C3.91664 7.30931 4.25015 8.1978 4.94982 9.05686L5.53571 9.77623L4.86221 10.4143C4.73095 10.5387 4.56538 10.6439 4.45609 10.7107C4.32631 10.79 4.17785 10.8729 4.03104 10.9519C3.73773 11.1097 3.41141 11.2726 3.1782 11.3891L3.17687 11.3898C2.18599 11.8856 1.76847 12.12 1.55489 12.3334C1.34396 12.5447 1.19398 12.8716 1.10227 13.2431C1.01368 13.6021 1.00187 13.9134 1.00043 14H10.9998C10.9983 13.9134 10.9865 13.6021 10.8979 13.2431C10.8062 12.8716 10.6562 12.5447 10.4453 12.3334C10.2317 12.12 9.8142 11.8856 8.82332 11.3898L8.82199 11.3891C8.58878 11.2726 8.26246 11.1097 7.96915 10.9519C7.82234 10.8729 7.67388 10.79 7.5441 10.7107C7.43481 10.6439 7.26924 10.5387 7.13798 10.4143L6.46448 9.77623L7.05037 9.05686C7.75004 8.1978 8.08355 7.30931 8.08355 6.63863C8.08355 5.94864 8.06728 5.37155 7.82315 4.88803C7.72106 4.686 7.56317 4.47668 7.31023 4.31424C7.06081 4.15406 6.65782 4 6.00004 4Z" fill="#4D4D4D"/>
<path d="M13.2704 8.49562C14.2047 8.96287 14.7974 9.272 15.1516 9.626C15.9363 10.4111 15.9959 11.7285 15.9998 11.9846C16.0042 12.2526 15.9002 12.511 15.7126 12.7014C15.5241 12.8924 15.2678 13.0002 14.9997 13.0002L12.9 13L12.5859 12L14.9997 12.0002C14.9934 11.5813 14.8693 10.7585 14.4439 10.3333C14.1993 10.0881 13.6176 9.78788 12.8226 9.38988C11.8829 8.92013 11.3913 8.655 11.1387 8.41575L10.4634 7.778L11.0498 7.0575C11.7062 6.25062 12.0832 5.369 12.0832 4.63875C12.0832 4.05988 12.0832 3.40363 11.8229 2.888C11.5212 2.2905 10.9248 2 9.99994 2C9.23369 2 8.69258 2.1994 8.35813 2.60765L7.89165 2.40001L7.42517 2.19237C7.81014 1.60197 8.55665 1 9.99994 1C11.6447 1 12.3846 1.78175 12.7156 2.43738C13.0833 3.16563 13.0833 3.9825 13.0833 4.63875C13.0833 5.60575 12.6213 6.7105 11.8253 7.68875C12.0134 7.86654 12.7832 8.25179 13.2559 8.48836L13.2559 8.48836L13.2704 8.49562Z" fill="#4D4D4D"/>
</svg>
