<svg width="16" height="16" viewBox="0 0 16 16" fill="none" xmlns="http://www.w3.org/2000/svg">
<path fill-rule="evenodd" clip-rule="evenodd" d="M3 1C1.99949 1 1.24974 1.25025 0.749997 1.75C0.250256 2.24974 0 2.99949 0 4V9C0 10.0005 0.250232 10.7502 0.749978 11.2499C1.24973 11.7497 1.99949 12 3 12H7L12 16V12C13.0004 12 13.7503 11.7497 14.25 11.2499C14.7498 10.7502 15 10.0004 15 9V4C15 2.99949 14.7497 2.24973 14.2499 1.74998C13.7502 1.25023 13.0004 1 12 1H3ZM1.4571 2.4571C1.70368 2.21053 2.15465 2 3 2H12C12.8453 2 13.2963 2.21054 13.5428 2.45707C13.7894 2.70365 14 3.15465 14 4V9C14 9.84536 13.7894 10.2964 13.5428 10.5429C13.2963 10.7895 12.8453 11 12 11H11V13.9194L7.35078 11H3C2.15465 11 1.70365 10.7894 1.45708 10.5428C1.21054 10.2963 1 9.84536 1 9V4C1 3.15465 1.21053 2.70368 1.4571 2.4571Z" fill="#4D4D4D"/>
</svg>
