<svg width="16" height="16" viewBox="0 0 16 16" fill="none" xmlns="http://www.w3.org/2000/svg">
<path fill-rule="evenodd" clip-rule="evenodd" d="M11.1464 9.8536L8 6.70711V3H9V6.29289L11.8536 9.1464L11.1464 9.8536Z" fill="#4D4D4D"/>
<path d="M2.75 1.75C3.24974 1.25025 3.99949 1 5 1H13C14.0004 1 14.7502 1.25023 15.2499 1.74998C15.7497 2.24973 16 2.99949 16 4V9C16 10.0004 15.7498 10.7502 15.25 11.2499C14.7503 11.7497 14.0004 12 13 12V16L8 12H5C3.99949 12 3.24973 11.7497 2.74998 11.2499C2.63524 11.1352 2.53366 11.0073 2.44524 10.8662L3.21666 10.196C3.28714 10.3428 3.36986 10.4556 3.45708 10.5428C3.70365 10.7894 4.15465 11 5 11H8.35078L12 13.9194V11H13C13.8453 11 14.2963 10.7895 14.5428 10.5429C14.7894 10.2964 15 9.84536 15 9V4C15 3.15465 14.7894 2.70365 14.5428 2.45707C14.2963 2.21054 13.8453 2 13 2H5C4.15465 2 3.70368 2.21053 3.4571 2.4571C3.21053 2.70368 3 3.15465 3 4V5H5L2.5 8L0 5H2V4C2 2.99949 2.25026 2.24974 2.75 1.75Z" fill="#4D4D4D"/>
</svg>
