<svg width="16" height="16" viewBox="0 0 16 16" fill="none" xmlns="http://www.w3.org/2000/svg">
<path fill-rule="evenodd" clip-rule="evenodd" d="M2.63088 10.827C3.64734 12.7535 5.67031 14.0667 8 14.0667C11.3505 14.0667 14.0667 11.3505 14.0667 8C14.0667 4.64947 11.3505 1.93333 8 1.93333C5.63558 1.93333 3.58709 3.28595 2.58609 5.25959C2.5035 5.09303 2.44898 5 2.44898 5H1.67363C2.79709 2.63505 5.2076 1 8 1C11.866 1 15 4.13401 15 8C15 11.866 11.866 15 8 15C6.09004 15 4.35875 14.2351 3.09576 12.9948C3.02074 12.904 1.99195 11.635 2.49994 11C2.54568 10.9428 2.5893 10.8851 2.63088 10.827Z" fill="#333333"/>
<path d="M1.5 0.5V5.5H6.5" stroke="#333333" stroke-miterlimit="10" stroke-linecap="round" stroke-linejoin="round"/>
</svg>
