<svg width="16" height="16" viewBox="0 0 16 16" fill="none" xmlns="http://www.w3.org/2000/svg">
<path fill-rule="evenodd" clip-rule="evenodd" d="M13.3691 10.827C12.3527 12.7535 10.3297 14.0667 8 14.0667C4.64947 14.0667 1.93333 11.3505 1.93333 8C1.93333 4.64947 4.64947 1.93333 8 1.93333C10.3644 1.93333 12.4129 3.28595 13.4139 5.25959C13.4965 5.09303 13.551 5 13.551 5H14.3264C13.2029 2.63505 10.7924 1 8 1C4.13401 1 1 4.13401 1 8C1 11.866 4.13401 15 8 15C9.90996 15 11.6413 14.2351 12.9042 12.9948C12.9793 12.904 14.0081 11.635 13.5001 11C13.4543 10.9428 13.4107 10.8851 13.3691 10.827Z" fill="#333333"/>
<path d="M14.5 0.5V5.5H9.5" stroke="#333333" stroke-miterlimit="10" stroke-linecap="round" stroke-linejoin="round"/>
</svg>
