<?xml version="1.0" encoding="UTF-8" standalone="no"?>
<svg
   xmlns:dc="http://purl.org/dc/elements/1.1/"
   xmlns:cc="http://creativecommons.org/ns#"
   xmlns:rdf="http://www.w3.org/1999/02/22-rdf-syntax-ns#"
   xmlns:svg="http://www.w3.org/2000/svg"
   xmlns="http://www.w3.org/2000/svg"
   xmlns:sodipodi="http://sodipodi.sourceforge.net/DTD/sodipodi-0.dtd"
   xmlns:inkscape="http://www.inkscape.org/namespaces/inkscape"
   width="16"
   height="16"
   viewBox="0 0 16 16"
   fill="none"
   version="1.1"
   id="svg4"
   sodipodi:docname="send.svg"
   inkscape:version="0.92.4 (5da689c313, 2019-01-14)">
  <metadata
     id="metadata10">
    <rdf:RDF>
      <cc:Work
         rdf:about="">
        <dc:format>image/svg+xml</dc:format>
        <dc:type
           rdf:resource="http://purl.org/dc/dcmitype/StillImage" />
      </cc:Work>
    </rdf:RDF>
  </metadata>
  <defs
     id="defs8" />
  <sodipodi:namedview
     pagecolor="#ffffff"
     bordercolor="#666666"
     borderopacity="1"
     objecttolerance="10"
     gridtolerance="10"
     guidetolerance="10"
     inkscape:pageopacity="0"
     inkscape:pageshadow="2"
     inkscape:window-width="2432"
     inkscape:window-height="1417"
     id="namedview6"
     showgrid="false"
     inkscape:zoom="14.75"
     inkscape:cx="-22.875889"
     inkscape:cy="8"
     inkscape:window-x="1672"
     inkscape:window-y="-8"
     inkscape:window-maximized="1"
     inkscape:current-layer="svg4" />
  <path
     fill-rule="evenodd"
     clip-rule="evenodd"
     d="M4.19038 10.1951C3.97707 9.73764 4.13808 9.19296 4.56581 8.92501L10.7073 5.07776L3.81244 7.30941C3.33225 7.46483 2.8115 7.23806 2.59819 6.78062L1.02371 3.40412C0.9466 3.23877 1.06686 3.04919 1.2493 3.04847L14.093 2.99806C14.5195 2.99639 14.7521 3.49527 14.4767 3.82095L6.18232 13.6274C6.0645 13.7667 5.84197 13.7369 5.76487 13.5716L4.19038 10.1951ZM3.69078 8.34959C2.8651 8.42726 2.05534 7.98267 1.69189 7.20324L0.117398 3.82674C-0.26813 2.99997 0.333145 2.05206 1.24538 2.04848L14.089 1.99807C15.3687 1.99305 16.0666 3.4897 15.2402 4.46674L6.94584 14.2732C6.35672 14.9697 5.24409 14.821 4.85856 13.9942L3.28407 10.6177C2.92062 9.83826 3.10054 8.93217 3.69078 8.34959Z"
     fill="#4D4D4D"
     id="path2"
     style="fill:#4d4d4d;fill-opacity:1" />
</svg>
