<svg width="16" height="16" viewBox="0 0 16 16" fill="none" xmlns="http://www.w3.org/2000/svg">
<path fill-rule="evenodd" clip-rule="evenodd" d="M11 6.80425V4.5C11 3.67157 10.3284 3 9.5 3H2.5C1.67157 3 1 3.67157 1 4.5V11.5C1 12.3284 1.67157 13 2.5 13H9.5C10.3284 13 11 12.3284 11 11.5V9.19575L15 11.6958V4.30425L11 6.80425ZM16 2.5V13.5L12 11V11.5C12 11.7174 11.9723 11.9283 11.9201 12.1293C11.6411 13.2054 10.6633 14 9.5 14H2.5C1.11929 14 0 12.8807 0 11.5V4.5C0 3.11929 1.11929 2 2.5 2H9.5C10.6633 2 11.6411 2.7946 11.9201 3.87068C11.9723 4.07174 12 4.28263 12 4.5V5L16 2.5Z" fill="#4D4D4D"/>
</svg>
